<svg viewBox="-1 0 20 20" xmlns="http://www.w3.org/2000/svg" fill="#000000">
    <g id="SVGRepo_bgCarrier" stroke-width="0"></g>
    <g id="SVGRepo_tracerCarrier" stroke-linecap="round" stroke-linejoin="round"></g>
    <g id="SVGRepo_iconCarrier">
        <g id="user-8" transform="translate(-3 -2)">
            <path id="secondary" fill="#2ca9bc"
                d="M16.29,13.19a6,6,0,0,1-8.58,0A5,5,0,0,0,4,18a3,3,0,0,0,3,3H17a3,3,0,0,0,3-3,5,5,0,0,0-3.71-4.81Z"></path>
            <path id="primary"
                d="M7.49,13.25A5,5,0,0,0,4,18a3,3,0,0,0,3,3H17a3,3,0,0,0,3-3,5,5,0,0,0-3.49-4.75"
                fill="none" stroke="#000000" stroke-linecap="round" stroke-linejoin="round"
                stroke-width="2"></path>
            <circle id="primary-2" data-name="primary" cx="6" cy="6" r="6"
                transform="translate(6 3)" fill="none" stroke="#000000" stroke-linecap="round"
                stroke-linejoin="round" stroke-width="2"></circle>
        </g>
    </g>
</svg>