<svg fill="#000000" viewBox="0 0 24 24" id="image-frame" data-name="Flat Color"
    xmlns="http://www.w3.org/2000/svg" class="icon flat-color">
    <g id="SVGRepo_bgCarrier" stroke-width="0"></g>
    <g id="SVGRepo_tracerCarrier" stroke-linecap="round" stroke-linejoin="round"></g>
    <g id="SVGRepo_iconCarrier">
        <rect id="primary" x="2" y="3" width="20" height="18" rx="2" style="fill: #000000;"></rect>
        <path id="secondary"
            d="M2.29,17,7,12.29a1,1,0,0,1,1.42,0l2.09,2.1,4.07-4.08a1,1,0,0,1,1.42,0L21.71,16a1,1,0,0,1,.29.71V19a2,2,0,0,1-2,2H4a2,2,0,0,1-2-2V17.71A1,1,0,0,1,2.29,17ZM7.5,7.5A1.5,1.5,0,1,0,9,6,1.5,1.5,0,0,0,7.5,7.5Z"
            style="fill: #2ca9bc;"></path>
    </g>
</svg>